<?xml version="1.0" standalone="no"?><!DOCTYPE svg PUBLIC "-//W3C//DTD SVG 1.1//EN" "http://www.w3.org/Graphics/SVG/1.1/DTD/svg11.dtd"><svg t="1596432065268" class="icon" viewBox="0 0 1024 1024" version="1.1" xmlns="http://www.w3.org/2000/svg" p-id="3399" xmlns:xlink="http://www.w3.org/1999/xlink" width="200" height="200"><defs><style type="text/css"></style></defs><path d="M512 1023C230.8 1023 2 794.2 2 513S230.8 3 512 3s510 228.8 510 510-228.8 510-510 510z m0-956.2C265.9 66.8 65.8 266.9 65.8 513S265.9 959.2 512 959.2 958.2 759.1 958.2 513 758.1 66.8 512 66.8z" p-id="3400" fill="#2c2c2c"></path><path d="M511.8 135.2c-202.4 0-366.6 164.1-366.6 366.6s164.1 366.6 366.6 366.6 366.6-164.1 366.6-366.6-164.2-366.6-366.6-366.6z m294.4 424.4H519.6c-2.4 0.3-4.9 0.5-7.4 0.5-26.4 0-47.8-18.8-47.8-42v-252c0-23.2 21.4-42 47.8-42s47.8 18.8 47.8 42V464h246.2c24.6 0 44.6 21.4 44.6 47.8s-20 47.8-44.6 47.8z" p-id="3401" fill="#2c2c2c"></path></svg>